:SAMPLES-PER-SECOND 30
:FULLY-SPECIFIED
:DEGREES
139
root  -9.14051 39.7009 3.70042 165.7 83.0357 171.308
RightUpLeg  -19.7433 -13.4708 -3.61653
RightLeg  14.9801 -0.72946 0.876461
RightFoot  4.0894 -0.564018 4.43665
RightToes  0.00048216 0.542163 -0.142577
Spine  13.2688 -0.432058 -5.672
Spine1  11.8785 -1.26622 0.0216374
HEad  -26.0313 3.83984 1.63731
LeftShoulder1  5.04993 -11.3829 -27.8208
LeftArm  -35.1189 -33.918 -8.20389
LeftForeArm  16.8605 -12.8482 -2.14006
LeftHand  -0.25398 0.0180481 5.50724
RightShoulder  3.55142 8.04279 24.6211
RightArm  -14.8946 -7.70611 29.2534
RightForeArm  -1.81433 38.8741 9.1391
RightHand  -2.137 5.18676 -23.496
LeftUpLeg  16.2734 5.13949 -3.32531
LeftLeg  9.01379 8.95306 -3.3657
LeftFoot  -16.0075 0.215795 2.9519
LeftToes  1.0625e-005 4.65855e-005 -8.18498e-006
140
root  -7.43913 39.3844 3.62667 165.414 83.3221 170.888
RightUpLeg  -16.9625 -8.41997 -5.00106
RightLeg  1.51952 -8.86989 5.00671
RightFoot  2.57968 -1.32508 11.0142
RightToes  0.00048216 0.542163 -0.142577
Spine  12.3098 -0.65608 -6.89853
Spine1  12.3117 -2.05323 1.64347
HEad  -24.7144 3.77757 1.61573
LeftShoulder1  4.63769 -11.0153 -25.7726
LeftArm  -40.0179 -38.8299 -5.85709
LeftForeArm  19.2176 -18.0936 -2.74619
LeftHand  -0.25398 0.0180481 5.50724
RightShoulder  3.75905 8.39036 25.5081
RightArm  -14.4055 -10.0043 32.9407
RightForeArm  4.60701 40.9022 9.40446
RightHand  -1.80665 4.03852 -22.3113
LeftUpLeg  18.7556 6.15304 -2.00668
LeftLeg  9.81845 6.84596 -3.94175
LeftFoot  -17.1803 0.149092 0.90551
LeftToes  1.0625e-005 4.65855e-005 -8.18498e-006
141
root  -5.60505 39.0433 3.55728 164.204 83.1346 169.553
RightUpLeg  -15.2096 -7.19307 -4.69295
RightLeg  -4.6319 -13.7354 7.58565
RightFoot  1.51886 -1.61205 14.2723
RightToes  0.00048216 0.542163 -0.142577
Spine  11.4084 -1.02411 -8.44024
Spine1  12.3556 -3.13174 3.71499
HEad  -23.023 3.7885 1.33963
LeftShoulder1  4.15227 -10.3091 -23.7988
LeftArm  -43.1873 -42.0935 -4.81024
LeftForeArm  21.5882 -23.9223 -3.98126
LeftHand  -0.25398 0.0180481 5.50724
RightShoulder  3.94697 8.65251 26.4102
RightArm  -14.5576 -12.1611 36.85
RightForeArm  10.0296 39.6293 8.65366
RightHand  -1.66978 3.62387 -21.5941
LeftUpLeg  20.854 7.50824 -0.651936
LeftLeg  11.8751 3.92958 -4.0659
LeftFoot  -17.7089 0.042895 -1.14525
LeftToes  1.0625e-005 4.65855e-005 -8.18498e-006
142
root  -3.73063 38.7958 3.4623 164.236 83.1007 169.519
RightUpLeg  -15.1451 -6.76848 -3.29592
RightLeg  -2.45545 -14.869 7.41008
RightFoot  4.31022 -1.61224 12.0413
RightToes  0.00048216 0.542163 -0.142577
Spine  10.8073 -1.42247 -9.08845
Spine1  12.3568 -4.15612 5.69772
HEad  -21.0825 4.06778 0.604465
LeftShoulder1  3.57505 -9.27352 -21.5962
LeftArm  -43.0922 -44.1275 -5.54361
LeftForeArm  25.2307 -28.4838 -4.78048
LeftHand  -0.25398 0.0180481 5.50724
RightShoulder  4.04939 8.73822 27.0415
RightArm  -15.2871 -14.3471 41.0402
RightForeArm  11.4349 35.1174 7.22953
RightHand  -1.92371 4.68669 -22.2252
LeftUpLeg  23.1752 10.4218 1.56952
LeftLeg  13.738 -0.395745 -3.82882
LeftFoot  -16.9722 -0.0906033 -3.8978
LeftToes  1.0625e-005 4.65855e-005 -8.18498e-006
143
root  -1.81786 38.6101 3.31541 168.689 83.559 174.338
RightUpLeg  -15.8927 -7.53408 -0.950477
RightLeg  4.36107 -12.1663 5.38056
RightFoot  7.90566 -1.3213 8.03665
RightToes  0.00048216 0.542163 -0.142577
Spine  10.6834 -1.84546 -7.80752
Spine1  12.5693 -4.76212 6.75052
HEad  -19.711 4.56522 -0.762569
LeftShoulder1  3.08755 -8.12268 -20.0921
LeftArm  -41.6053 -45.4939 -7.09962
LeftForeArm  30.6441 -30.6231 -4.97665
LeftHand  -0.25398 0.0180481 5.50724
RightShoulder  4.16457 8.87975 27.6099
RightArm  -15.4705 -16.2048 44.4822
RightForeArm  8.00085 27.7443 5.59306
RightHand  -2.38956 6.57236 -23.3047
LeftUpLeg  25.4224 14.7815 5.31621
LeftLeg  16.7737 -5.96737 -3.31922
LeftFoot  -14.7102 -0.140111 -8.13747
LeftToes  1.0625e-005 4.65855e-005 -8.18498e-006
144
root  0.0359261 38.5019 3.12999 -179.255 83.9937 -172.858
RightUpLeg  -16.5095 -12.9089 2.89157
RightLeg  11.6446 -4.28633 3.06415
RightFoot  7.88042 -1.22826 7.60944
RightToes  0.00048216 0.542163 -0.142577
Spine  11.1444 -2.26479 -4.65278
Spine1  13.07 -4.94079 6.86608
HEad  -19.458 4.85229 -2.46921
LeftShoulder1  2.93552 -7.47272 -20.2774
LeftArm  -39.4274 -46.3628 -8.48039
LeftForeArm  32.8311 -30.4228 -4.81439
LeftHand  -0.25398 0.0180481 5.50724
RightShoulder  4.42544 9.34296 28.4484
RightArm  -15.8759 -16.9784 46.2279
RightForeArm  5.45233 17.9299 4.45062
RightHand  -2.44002 7.12185 -22.7425
LeftUpLeg  24.883 15.6044 8.22214
LeftLeg  23.7981 -7.52844 -3.04918
LeftFoot  -8.56326 0.348985 -12.0152
LeftToes  1.0625e-005 4.65855e-005 -8.18498e-006
145
root  1.69545 38.4517 2.96869 -165.245 83.3575 -158.352
RightUpLeg  -16.9817 -18.2515 6.13951
RightLeg  17.692 2.49163 1.85222
RightFoot  3.59072 -1.27956 9.94009
RightToes  0.00048216 0.542163 -0.142577
Spine  11.8528 -2.75628 -1.00437
Spine1  13.7665 -4.93796 6.81522
HEad  -19.7108 4.42931 -3.70706
LeftShoulder1  3.17713 -7.76071 -21.82
LeftArm  -35.629 -46.4233 -9.98415
LeftForeArm  28.842 -28.7542 -4.64924
LeftHand  -0.25398 0.0180481 5.50724
RightShoulder  4.77005 9.9506 29.4801
RightArm  -19.3261 -16.8324 46.712
RightForeArm  11.3078 7.64737 4.14522
RightHand  -1.7714 5.07242 -19.7468
LeftUpLeg  19.3862 11.855 8.78382
LeftLeg  35.3856 -4.38452 -2.97244
LeftFoot  3.00769 1.49745 -12.2947
LeftToes  1.0625e-005 4.65855e-005 -8.18498e-006
146
root  3.15846 38.3496 2.8648 -159.651 81.7469 -152.788
RightUpLeg  -17.0917 -20.0214 7.30801
RightLeg  22.6184 3.93157 1.6163
RightFoot  -1.43613 -0.92537 10.4556
RightToes  0.00048216 0.542163 -0.142577
Spine  12.3828 -3.32689 1.92374
Spine1  14.4435 -4.90333 7.11993
HEad  -19.5012 3.26019 -3.82968
LeftShoulder1  3.6071 -8.5418 -23.6751
LeftArm  -29.1846 -45.3315 -12.7395
LeftForeArm  22.926 -26.8509 -4.54222
LeftHand  -0.25398 0.0180481 5.50724
RightShoulder  4.98545 10.2298 30.3441
RightArm  -19.9133 -16.995 47.324
RightForeArm  18.0069 1.18481 2.54075
RightHand  -1.08171 2.40844 -16.3258
LeftUpLeg  11.0262 8.12221 8.75576
LeftLeg  48.1356 -2.10666 -2.08384
LeftFoot  14.1153 2.13985 -9.8191
LeftToes  1.0625e-005 4.65855e-005 -8.18498e-006
147
root  4.67464 38.3826 2.78136 -162.041 80.4624 -155.361
RightUpLeg  -15.681 -20.2702 6.73761
RightLeg  25.1931 2.98395 1.3984
RightFoot  -4.42392 -0.572812 8.97258
RightToes  0.00048216 0.542163 -0.142577
Spine  12.4364 -3.62741 3.43369
Spine1  14.8665 -4.74124 7.30772
HEad  -18.7388 1.84554 -3.09671
LeftShoulder1  3.99138 -9.08581 -25.5223
LeftArm  -21.1573 -42.7445 -16.9488
LeftForeArm  21.2988 -25.6637 -4.36974
LeftHand  -0.25398 0.0180481 5.50724
RightShoulder  5.00085 10.0341 30.9898
RightArm  -20.6184 -18.3922 47.7546
RightForeArm  22.1967 0.259834 1.88281
RightHand  -0.839038 1.19975 -14.9234
LeftUpLeg  2.96567 5.27261 8.14242
LeftLeg  58.0864 -0.238501 0.127836
LeftFoot  17.3307 1.84461 -7.58483
LeftToes  1.0625e-005 4.65855e-005 -8.18498e-006
148
root  6.38007 38.725 2.67282 -167.641 80.2556 -161.021
RightUpLeg  -12.4099 -19.6434 4.9784
RightLeg  25.0741 1.76524 1.11581
RightFoot  -5.94877 -0.377917 7.15198
RightToes  0.00048216 0.542163 -0.142577
Spine  11.975 -3.44166 3.69552
Spine1  15.0687 -4.33067 6.79168
HEad  -17.8398 0.844608 -2.49166
LeftShoulder1  4.34605 -9.30795 -27.8135
LeftArm  -14.0348 -38.2402 -21.4723
LeftForeArm  24.4494 -25.1521 -4.08889
LeftHand  -0.25398 0.0180481 5.50724
RightShoulder  4.95411 9.68225 31.6259
RightArm  -19.9502 -20.3089 47.1228
RightForeArm  19.8832 3.30837 2.66422
RightHand  -0.859251 1.17351 -15.29
LeftUpLeg  -3.39526 4.12176 7.07604
LeftLeg  63.2147 1.30472 3.39579
LeftFoot  14.015 1.17661 -5.59385
LeftToes  1.0625e-005 4.65855e-005 -8.18498e-006
149
root  8.13047 39.1395 2.51273 -172.966 80.808 -166.455
RightUpLeg  -8.65583 -17.9328 2.96051
RightLeg  24.0059 0.593168 1.1596
RightFoot  -8.08455 -0.231723 6.25767
RightToes  0.00048216 0.542163 -0.142577
Spine  11.228 -3.0815 3.79252
Spine1  15.1419 -3.73936 5.84872
HEad  -16.7902 0.62894 -2.69152
LeftShoulder1  4.82529 -9.58057 -30.8181
LeftArm  -8.82126 -31.6739 -25.0653
LeftForeArm  27.6969 -24.24 -3.7294
LeftHand  -0.25398 0.0180481 5.50724
RightShoulder  4.93806 9.43702 32.2168
RightArm  -17.4113 -21.3824 45.2505
RightForeArm  15.2277 7.13758 4.18525
RightHand  -0.960224 1.59645 -16.0722
LeftUpLeg  -8.56262 4.10587 5.88579
LeftLeg  63.7823 2.28216 5.66766
LeftFoot  9.33567 0.688316 -4.09725
LeftToes  1.0625e-005 4.65855e-005 -8.18498e-006
150
root  9.86713 39.4471 2.31472 -179.073 81.8314 -172.801
RightUpLeg  -4.91747 -15.7627 0.874363
RightLeg  22.6017 -0.13984 1.70281
RightFoot  -10.8641 -0.0995441 6.59382
RightToes  0.00048216 0.542163 -0.142577
Spine  10.4156 -2.6767 3.76599
Spine1  14.8807 -3.05067 4.75539
HEad  -15.5431 1.05204 -3.40776
LeftShoulder1  5.40203 -9.98211 -34.0017
LeftArm  -5.51394 -23.468 -27.59
LeftForeArm  28.2154 -21.7771 -3.61367
LeftHand  -0.25398 0.0180481 5.50724
RightShoulder  4.87695 9.19966 32.449
RightArm  -13.9217 -21.0359 43.0949
RightForeArm  13.1629 9.98616 5.32587
RightHand  -1.08388 2.15336 -16.8146
LeftUpLeg  -12.9469 4.63678 4.48172
LeftLeg  60.9375 2.77916 5.99511
LeftFoot  6.52924 0.426718 -2.97189
LeftToes  1.0625e-005 4.65855e-005 -8.18498e-006
151
root  11.5819 39.6742 2.1092 171.605 83.2331 177.708
RightUpLeg  -1.00683 -13.6643 -1.31577
RightLeg  20.5704 -0.27329 2.47418
RightFoot  -12.8722 0.0118846 7.46797
RightToes  0.00048216 0.542163 -0.142577
Spine  9.84438 -2.15764 3.41273
Spine1  14.4058 -2.22752 3.33801
HEad  -14.7122 1.71976 -3.94927
LeftShoulder1  5.87097 -10.3074 -36.4102
LeftArm  -6.04155 -14.3763 -29.8572
LeftForeArm  28.2641 -17.3798 -4.48903
LeftHand  -0.25398 0.0180481 5.50724
RightShoulder  4.70895 8.85253 32.1667
RightArm  -10.408 -19.4213 41.5665
RightForeArm  12.8464 11.8956 5.74727
RightHand  -1.24981 2.8296 -17.7982
LeftUpLeg  -16.0995 5.82428 2.9165
LeftLeg  55.0972 3.08716 5.24559
LeftFoot  4.4402 0.325974 -2.56518
LeftToes  1.0625e-005 4.65855e-005 -8.18498e-006
152
root  13.2337 39.8177 1.88428 159.699 85.0018 165.817
RightUpLeg  2.64472 -12.1913 -3.06301
RightLeg  18.7225 0.499109 3.04104
RightFoot  -13.9782 0.0840099 7.79519
RightToes  0.00048216 0.542163 -0.142577
Spine  9.63583 -1.5698 3.37364
Spine1  14.1885 -1.25156 1.62566
HEad  -14.9589 2.52692 -4.18533
LeftShoulder1  6.18437 -10.5631 -37.8155
LeftArm  -9.9792 -5.06741 -32.4156
LeftForeArm  28.19 -11.4952 -5.42835
LeftHand  -0.25398 0.0180481 5.50724
RightShoulder  4.52204 8.54021 31.6022
RightArm  -7.69153 -16.632 40.4624
RightForeArm  11.7869 13.036 5.94611
RightHand  -1.40402 3.33136 -18.8425
LeftUpLeg  -17.6303 7.88918 1.80426
LeftLeg  45.9782 3.09163 3.84893
LeftFoot  2.35165 0.404922 -3.49391
LeftToes  1.0625e-005 4.65855e-005 -8.18498e-006
153
root  14.8434 39.8689 1.62026 136.117 86.9364 142.287
RightUpLeg  5.88302 -11.329 -4.3672
RightLeg  17.4338 2.1139 3.30687
RightFoot  -15.0064 0.12838 7.2054
RightToes  0.00048216 0.542163 -0.142577
Spine  9.53411 -0.992899 3.64298
Spine1  14.3094 -0.26966 -0.0839902
HEad  -16.0593 3.7939 -4.51065
LeftShoulder1  6.54327 -10.9121 -39.1759
LeftArm  -12.515 4.26575 -34.7314
LeftForeArm  25.4135 -5.63287 -4.9779
LeftHand  -0.25398 0.0180481 5.50724
RightShoulder  4.40969 8.39414 31.1149
RightArm  -5.84768 -12.6215 39.1598
RightForeArm  10.1231 13.1703 6.24874
RightHand  -1.4437 3.35324 -19.3081
LeftUpLeg  -17.728 10.9707 1.0347
LeftLeg  33.761 2.22328 2.08936
LeftFoot  2.04675 0.528798 -4.60182
LeftToes  1.0625e-005 4.65855e-005 -8.18498e-006
